<svg xmlns="http://www.w3.org/2000/svg" version="1.1" xmlns:xlink="http://www.w3.org/1999/xlink" xmlns:svgjs="http://svgjs.dev/svgjs" width="1440" height="560" preserveAspectRatio="none" viewBox="0 0 1440 560"><g mask="url(&quot;#SvgjsMask1204&quot;)" fill="none"><rect width="1440" height="560" x="0" y="0" fill="rgba(255, 255, 255, 1)"></rect><path d="M -1217.0119406770434,277 C -1073.01,294.6 -785.01,375.8 -497.01194067704347,365 C -209.01,354.2 -65.01,235.2 222.98805932295653,223 C 510.99,210.8 699.59,311.6 942.9880593229566,304 C 1186.39,296.4 1340.6,208.8 1440,185" stroke="rgba(73, 5, 180, 0.1)" stroke-width="2"></path><path d="M -1296.8745544839405,72 C -1152.87,126.4 -864.87,330.2 -576.8745544839405,344 C -288.87,357.8 -144.87,115.6 143.12544551605947,141 C 431.13,166.4 603.75,453.8 863.1254455160595,471 C 1122.5,488.2 1324.63,275.8 1440,227" stroke="rgba(73, 5, 180, 0.1)" stroke-width="2"></path><path d="M -200.73727933562816,401 C -56.74,361 231.26,213.4 519.2627206643718,201 C 807.26,188.6 951.26,355.8 1239.262720664372,339 C 1527.26,322.2 1919.12,95.2 1959.262720664372,117 C 1999.41,138.8 1543.85,381.8 1440,448" stroke="rgba(73, 5, 180, 0.1)" stroke-width="2"></path></g><defs><mask id="SvgjsMask1204"><rect width="1440" height="560" fill="#ffffff"></rect></mask></defs></svg>